<?xml version="1.0" encoding="UTF-8" standalone="no"?>
<svg
   version="1.1"
   width="800"
   height="800"
   id="svg2"
   sodipodi:docname="gentoo.svg"
   inkscape:version="1.4.4 (dcaf3e7d9e, 2026-05-05)"
   xmlns:inkscape="http://www.inkscape.org/namespaces/inkscape"
   xmlns:sodipodi="http://sodipodi.sourceforge.net/DTD/sodipodi-0.dtd"
   xmlns="http://www.w3.org/2000/svg"
   xmlns:svg="http://www.w3.org/2000/svg">
  <defs
     id="defs2" />
  <sodipodi:namedview
     id="namedview2"
     pagecolor="#ffffff"
     bordercolor="#000000"
     borderopacity="0.25"
     inkscape:showpageshadow="2"
     inkscape:pageopacity="0.0"
     inkscape:pagecheckerboard="0"
     inkscape:deskcolor="#d1d1d1"
     showgrid="false"
     inkscape:zoom="0.485"
     inkscape:cx="128.86598"
     inkscape:cy="562.8866"
     inkscape:window-width="1888"
     inkscape:window-height="1002"
     inkscape:window-x="0"
     inkscape:window-y="0"
     inkscape:window-maximized="1"
     inkscape:current-layer="svg2" />
  <path
     d="M0 0 C0.8657666 -0.00067474 1.7315332 -0.00134949 2.62353516 -0.00204468 C64.26919049 0.07403123 118.59646004 23.62810153 170.4375 55.25 C172.55834386 56.5251553 174.679446 57.7998811 176.80078125 59.07421875 C196.93697748 71.24652387 216.43942774 84.36797634 235.4375 98.25 C236.52272949 99.03987305 236.52272949 99.03987305 237.62988281 99.84570312 C253.00670134 111.0483627 267.90231674 122.74339222 282.63330078 134.77783203 C284.22023046 136.07271511 285.81098737 137.36290478 287.40234375 138.65234375 C297.86663594 147.14977926 308.07494066 155.922826 318.0078125 165.03515625 C320.04265415 166.89006817 322.10071247 168.70428798 324.1875 170.5 C335.71866004 180.55061986 346.63449377 191.28228669 357.42919922 202.11132812 C359.460762 204.14832421 361.49771836 206.17981951 363.53515625 208.2109375 C364.85709207 209.53353317 366.17871817 210.85643849 367.5 212.1796875 C368.09490234 212.77256561 368.68980469 213.36544373 369.30273438 213.97628784 C372.99686165 217.69078331 376.49887863 221.5306895 379.92202759 225.49641418 C381.84552612 227.72213582 383.82772129 229.89141065 385.8125 232.0625 C390.53983896 237.31421605 395.03728657 242.72282543 399.4375 248.25 C399.96537109 248.91064453 400.49324219 249.57128906 401.03710938 250.25195312 C409.01607305 260.26848267 416.64072901 270.3907273 423.4375 281.25 C424.06350098 282.24483398 424.06350098 282.24483398 424.70214844 283.25976562 C437.53057729 303.82798085 446.40885273 324.75742495 446.67578125 349.3515625 C446.69047203 350.47766182 446.69047203 350.47766182 446.70545959 351.62651062 C447.14797379 394.34055799 436.78339868 420.62836524 409.4375 453.25 C408.99567383 453.77819336 408.55384766 454.30638672 408.09863281 454.85058594 C398.33985248 466.48370403 388.1413577 477.73048604 377.29296875 488.36010742 C375.51321773 490.1728775 373.87140874 492.04605023 372.23046875 493.984375 C368.47231486 498.30617742 364.39697559 502.1859935 360.1875 506.0625 C355.16367696 510.73396485 350.19563195 515.43118877 345.375 520.3125 C341.915379 523.80842886 338.39339773 527.1261823 334.65234375 530.31640625 C332.3240496 532.349044 330.06573267 534.44415403 327.80737305 536.55371094 C322.37937947 541.62330413 316.84478756 546.45181679 311.05078125 551.10546875 C308.43902377 553.24874956 305.93384698 555.4738033 303.4375 557.75 C299.26735132 561.54163754 294.97957025 565.13985177 290.59765625 568.68359375 C288.23512313 570.59423039 285.89357521 572.52844765 283.55859375 574.47265625 C275.72211468 580.98917237 267.7992063 587.34555261 259.67114258 593.49511719 C255.04523314 596.99983614 250.50546485 600.5922407 246 604.25 C239.21475628 609.73517444 232.18819332 614.84001375 225.08984375 619.91015625 C221.22067047 622.6759377 217.39393363 625.49438656 213.57763672 628.33251953 C195.2929523 641.92233218 176.46182891 654.72295061 157.4375 667.25 C156.633125 667.78157715 155.82875 668.3131543 155 668.86083984 C123.11118106 689.91082524 90.24389098 709.44775271 56.4375 727.25 C55.35823242 727.82314941 54.27896484 728.39629883 53.16699219 728.98681641 C-24.12000743 770.00908152 -120.76917403 813.42606674 -209.3046875 786.97265625 C-246.5825546 775.14868926 -278.17894266 747.60798861 -296.49609375 713.28515625 C-302.52329624 701.65543982 -307.10344178 690.1618192 -309.5625 677.25 C-309.73837646 676.3734375 -309.91425293 675.496875 -310.09545898 674.59375 C-311.77876634 665.19798514 -311.96851081 655.88560139 -311.98803711 646.36865234 C-311.99989192 643.64978744 -312.04919602 640.93323014 -312.09960938 638.21484375 C-312.26958404 619.79730639 -307.67253401 603.68233063 -299.5625 587.25 C-299.05178955 586.20996826 -299.05178955 586.20996826 -298.53076172 585.14892578 C-286.81367896 561.56983986 -270.62237647 540.21971161 -252.8984375 520.83203125 C-251.61644068 519.41497456 -250.34050528 517.99200619 -249.09413147 516.54351807 C-244.69215833 511.42842763 -240.06245516 506.60382684 -235.28515625 501.83984375 C-234.51497665 501.06870743 -233.74479706 500.29757111 -232.95127869 499.50306702 C-231.33308627 497.88419847 -229.71364788 496.26657449 -228.09301758 494.65014648 C-225.63182768 492.19431282 -223.17602191 489.73318635 -220.72070312 487.27148438 C-219.13834133 485.68978347 -217.55566933 484.10839283 -215.97265625 482.52734375 C-215.24844986 481.80111313 -214.52424347 481.07488251 -213.77809143 480.3266449 C-209.75036691 476.31712129 -205.63161778 472.47353357 -201.32200623 468.76795959 C-198.67920379 466.48796351 -196.12618765 464.11862446 -193.5625 461.75 C-189.60407708 458.10418209 -185.61119527 454.50737528 -181.54296875 450.984375 C-179.25116845 448.97735462 -177.00253248 446.92597149 -174.75 444.875 C-171.28719918 441.74577173 -167.75570997 438.74499651 -164.125 435.8125 C-160.32162497 432.73663412 -156.66167348 429.56246834 -153.0625 426.25 C-147.73943421 421.35338869 -142.1909655 416.78850869 -136.5625 412.25 C-134.55537264 410.59160134 -132.55823497 408.92210227 -130.5625 407.25 C-133.54734974 404.8805425 -136.59227679 403.09028905 -139.98046875 401.3515625 C-141.0571582 400.79654053 -142.13384766 400.24151855 -143.24316406 399.66967773 C-144.40041992 399.07743408 -145.55767578 398.48519043 -146.75 397.875 C-147.96475152 397.24923196 -149.17926632 396.6230042 -150.39355469 395.99633789 C-155.22806422 393.50251903 -160.06706744 391.01747634 -164.90673828 388.53369141 C-197.24736012 371.92045996 -230.42240094 354.80961877 -257.5625 330.25 C-258.10793457 329.75661133 -258.65336914 329.26322266 -259.21533203 328.75488281 C-280.22025221 309.45772985 -295.66413412 281.79075735 -296.8984375 252.84765625 C-297.58396696 211.03410551 -278.67566681 172.46421275 -254.5625 139.25 C-254.0778125 138.57598145 -253.593125 137.90196289 -253.09375 137.20751953 C-247.22612508 129.07650414 -241.13325007 121.37110085 -234.23046875 114.09375 C-232.17080991 111.89838889 -230.18878879 109.67916625 -228.22265625 107.40234375 C-224.57398886 103.21223568 -220.74258408 99.23827531 -216.8125 95.3125 C-215.76533813 94.26545898 -215.76533813 94.26545898 -214.69702148 93.19726562 C-209.99421969 88.54584579 -205.1821464 84.25649245 -199.9765625 80.171875 C-197.71208685 78.36908856 -195.61386896 76.4751208 -193.5 74.5 C-186.37551415 68.1019823 -178.39244478 62.73730207 -170.5625 57.25 C-169.93069824 56.80366211 -169.29889648 56.35732422 -168.64794922 55.89746094 C-127.36884525 26.88071239 -78.57659609 7.75440129 -28.5625 1.25 C-27.82459229 1.1483252 -27.08668457 1.04665039 -26.32641602 0.94189453 C-17.59512303 -0.10912046 -8.78119613 0.00615368 0 0 Z M-14.5625 158.25 C-23.58457095 169.26661969 -28.48637116 181.45178744 -31.5625 195.25 C-31.789375 196.23613281 -32.01625 197.22226563 -32.25 198.23828125 C-35.37934367 213.95019426 -34.75514861 228.85143496 -26.4375 242.8125 C-7.11628235 271.30310908 28.62783568 288.49712131 61.625 295.125 C74.61937862 297.29506123 86.02535884 297.16253362 98.4375 292.25 C99.05592773 292.00862305 99.67435547 291.76724609 100.31152344 291.51855469 C122.80484695 282.61751328 143.31263107 269.70217736 154.08984375 247.38671875 C158.39931572 237.35626661 157.38124621 225.61993282 153.8125 215.49609375 C148.98380659 204.0965363 142.52871267 195.4092757 133.83789062 186.67382812 C132.61637361 185.43186731 131.43700274 184.14873324 130.265625 182.859375 C108.44792906 159.3503848 70.48317137 142.11188243 38.42822266 140.12548828 C18.65436491 139.39211093 -0.66035619 142.92983752 -14.5625 158.25 Z "
     fill="#B4BEFE"
     transform="translate(332.5625,2.75)"
     id="path1"
     style="fill:#a6adc8;fill-opacity:1" />
  <path
     d=""
     fill="#B8C0FF"
     transform="translate(0,0)"
     id="path2" />
</svg>
